<?xml version="1.0" encoding="utf-8"?>
<!-- Generator: Adobe Illustrator 22.1.0, SVG Export Plug-In . SVG Version: 6.00 Build 0)  -->
<svg version="1.1" id="Layer_1" xmlns="http://www.w3.org/2000/svg" xmlns:xlink="http://www.w3.org/1999/xlink" x="0px" y="0px"
	 viewBox="0 0 350 200" style="enable-background:new 0 0 350 200;" xml:space="preserve">
<style type="text/css">
	.st0{fill:none;}
	.st1{fill:#FFFFFF;}
	.st2{fill:#EDD9BE;}
	.st3{opacity:0.5;fill:#D8D8D8;}
	.st4{fill:#E9AFA3;stroke:#663D31;stroke-width:3.9302;stroke-miterlimit:10;}
	.st5{fill:url(#SVGID_1_);stroke:#663D31;stroke-width:3.9302;stroke-miterlimit:10;}
	.st6{fill:none;stroke:#663D31;stroke-width:3.9302;stroke-miterlimit:10;}
	.st7{fill:url(#SVGID_2_);stroke:#663D31;stroke-width:3.9302;stroke-miterlimit:10;}
	.st8{fill:url(#SVGID_3_);stroke:#663D31;stroke-width:3.9302;stroke-miterlimit:10;}
	.st9{fill:url(#SVGID_4_);stroke:#663D31;stroke-width:3.9302;stroke-miterlimit:10;}
	.st10{fill:#FFFFFF;stroke:#663D31;stroke-width:3.9302;stroke-miterlimit:10;}
</style>
<pattern  x="25" y="-357.1" width="33.9" height="24.6" patternUnits="userSpaceOnUse" id="New_Pattern_Swatch_1" viewBox="0 -24.6 33.9 24.6" style="overflow:visible;">
	<g>
		<rect y="-24.6" class="st0" width="33.9" height="24.6"/>
		<rect x="0" y="-24.6" class="st1" width="33.9" height="24.6"/>
	</g>
</pattern>
<pattern  x="25" y="-357.1" width="33.9" height="24.6" patternUnits="userSpaceOnUse" id="New_Pattern_Swatch_3" viewBox="0 -24.6 33.9 24.6" style="overflow:visible;">
	<g>
		<rect y="-24.6" class="st0" width="33.9" height="24.6"/>
		<rect x="0" y="-24.6" class="st2" width="33.9" height="24.6"/>
	</g>
</pattern>
<g id="Cabinet">
	<rect x="20" y="145" class="st3" width="311.1" height="11.6"/>
	<rect x="21.9" y="22.9" class="st4" width="307.2" height="125.9"/>
	<pattern  id="SVGID_1_" xlink:href="#New_Pattern_Swatch_3" patternTransform="matrix(1 0 0 1 9.3909 -30.2189)">
	</pattern>
	<rect x="33.2" y="33.9" class="st5" width="284.9" height="104.2"/>
	<line class="st6" x1="164.8" y1="85.7" x2="317.7" y2="85.7"/>
	<pattern  id="SVGID_2_" xlink:href="#New_Pattern_Swatch_3" patternTransform="matrix(1 0 0 1 9.3909 -30.2189)">
	</pattern>
	<polyline class="st7" points="317.7,85.7 164.8,85.7 164.7,137.9 317.7,138.1 317.7,85.7 164.8,85.7 164.7,137.9 164.7,34.3 
		318.1,34.3 318.1,85.7 	"/>
	<pattern  id="SVGID_3_" xlink:href="#New_Pattern_Swatch_1" patternTransform="matrix(1 0 0 1 9.3909 -30.2189)">
	</pattern>
	<polygon class="st8" points="229.8,47.6 229.8,56.3 252.5,56.3 252.5,47.4 	"/>
	<pattern  id="SVGID_4_" xlink:href="#New_Pattern_Swatch_1" patternTransform="matrix(1 0 0 1 9.3909 -30.2189)">
	</pattern>
	<polygon class="st9" points="229.9,99.7 229.9,108.5 252.7,108.5 252.7,99.6 	"/>
	<polygon class="st10" points="120.8,137.9 120.7,33.8 164.7,34.3 164.7,137.9 	"/>
	<polygon class="st10" points="76.7,137.9 76.6,33.8 120.6,34.3 120.6,137.9 	"/>
	<polygon class="st10" points="33.9,137.9 33.9,33.8 77.9,34.3 77.9,137.9 	"/>
	<line class="st6" x1="153.8" y1="78.6" x2="153.9" y2="93.4"/>
	<line class="st6" x1="109.8" y1="78.8" x2="109.8" y2="93.6"/>
	<line class="st6" x1="66" y1="78.9" x2="66" y2="93.7"/>
	<line class="st6" x1="33.3" y1="23" x2="33.4" y2="148.7"/>
	<line class="st6" x1="77.1" y1="33.8" x2="77.2" y2="138.8"/>
	<line class="st6" x1="317.9" y1="23" x2="317.9" y2="148.7"/>
	<polygon class="st4" points="63.9,149 63.9,176.1 52.1,176.1 52.1,148.8 	"/>
	<polygon class="st4" points="299.4,149.8 299.4,177 287.6,177 287.6,149.7 	"/>
</g>
</svg>
