<?xml version="1.0" encoding="utf-8"?>
<!-- Generator: Adobe Illustrator 22.1.0, SVG Export Plug-In . SVG Version: 6.00 Build 0)  -->
<svg version="1.1" id="Layer_1" xmlns="http://www.w3.org/2000/svg" xmlns:xlink="http://www.w3.org/1999/xlink" x="0px" y="0px"
	 viewBox="0 0 300 254.6" style="enable-background:new 0 0 300 254.6;" xml:space="preserve">
<style type="text/css">
	.st0{fill:none;}
	.st1{fill:#DBE1D2;}
	.st2{fill:#EDD9BE;}
	.st3{opacity:0.5;fill:#D8D8D8;}
	.st4{fill:url(#SVGID_1_);stroke:#663D31;stroke-width:4;stroke-miterlimit:10;}
	.st5{fill:url(#SVGID_2_);stroke:#663D31;stroke-width:4;stroke-miterlimit:10;}
	.st6{fill:url(#SVGID_3_);stroke:#663D31;stroke-width:4;stroke-miterlimit:10;}
	.st7{fill:none;stroke:#663D31;stroke-width:6;stroke-miterlimit:10;}
	.st8{fill:url(#SVGID_4_);stroke:#663D31;stroke-width:4;stroke-miterlimit:10;}
	.st9{fill:url(#SVGID_5_);stroke:#663D31;stroke-width:4;stroke-miterlimit:10;}
	.st10{fill:#E9AFA3;stroke:#663D31;stroke-width:4;stroke-miterlimit:10;}
</style>
<pattern  y="-305.4" width="33.9" height="24.6" patternUnits="userSpaceOnUse" id="New_Pattern_Swatch_2" viewBox="0 -24.6 33.9 24.6" style="overflow:visible;">
	<g>
		<rect y="-24.6" class="st0" width="33.9" height="24.6"/>
		<rect x="0" y="-24.6" class="st1" width="33.9" height="24.6"/>
	</g>
</pattern>
<pattern  y="-305.4" width="33.9" height="24.6" patternUnits="userSpaceOnUse" id="New_Pattern_Swatch_3" viewBox="0 -24.6 33.9 24.6" style="overflow:visible;">
	<g>
		<rect y="-24.6" class="st0" width="33.9" height="24.6"/>
		<rect x="0" y="-24.6" class="st2" width="33.9" height="24.6"/>
	</g>
</pattern>
<g id="Chair">
	<polygon class="st3" points="205.1,206.1 206.7,203 201.6,183.6 204.8,183.6 199.1,160.9 103.6,160.9 98.6,184 100,184 95.6,204.2 
		98,205.4 107.3,183.6 194,183.6 	"/>
	<pattern  id="SVGID_1_" xlink:href="#New_Pattern_Swatch_2" patternTransform="matrix(1 0 0 1 9.3909 -30.2189)">
	</pattern>
	<path class="st4" d="M113.6,46.3c-5.8-31.7,79.5-30.6,74.9,1.4c-1,6.7-16.3,49.4-34.6,49.4C121.5,97.2,113.6,46.3,113.6,46.3z"/>
	<pattern  id="SVGID_2_" xlink:href="#New_Pattern_Swatch_3" patternTransform="matrix(1 0 0 1 9.3909 -30.2189)">
	</pattern>
	<path class="st5" d="M115.3,57.2c0,0-39.3,28.9-30.8,60.1c0,0,11.9,31.7,66,35.2c0,0,46.4,4.7,64-31.2
		C229.8,89.8,186,57.2,186,57.2l3.6-8.9c-10-10.1,59.5,37.1,34.5,75.8c-25.7,39.7-73.6,35.9-73.6,35.9c-62.2-4-75.9-40.5-75.9-40.5
		c-9.7-35.9,38.9-73.2,38.9-73.2L115.3,57.2z"/>
	<pattern  id="SVGID_3_" xlink:href="#New_Pattern_Swatch_2" patternTransform="matrix(1 0 0 1 9.3909 -30.2189)">
	</pattern>
	<path class="st6" d="M208.2,130.9c-8.6-8-90.1-13.7-114.7-0.6C109.1,152.3,177.8,167.6,208.2,130.9z"/>
	<line class="st7" x1="89.5" y1="86.4" x2="109.5" y2="124.1"/>
	<line class="st7" x1="113.1" y1="58.6" x2="127.7" y2="121.8"/>
	<line class="st7" x1="151.1" y1="122.4" x2="151.4" y2="97.6"/>
	<line class="st7" x1="175" y1="122.7" x2="187.4" y2="58.9"/>
	<line class="st7" x1="193.1" y1="125.5" x2="210.8" y2="84.7"/>
	<pattern  id="SVGID_4_" xlink:href="#New_Pattern_Swatch_3" patternTransform="matrix(1 0 0 1 9.3909 -30.2189)">
	</pattern>
	<path class="st8" d="M108.4,150.9l-14.7,65.2c-3.7,10.1-10.6,2.8-9.2-2.8c1.4-5.5,14.7-67.5,14.7-67.5L108.4,150.9z"/>
	<pattern  id="SVGID_5_" xlink:href="#New_Pattern_Swatch_3" patternTransform="matrix(1 0 0 1 9.3909 -30.2189)">
	</pattern>
	<path class="st9" d="M194.1,150.5l14.7,65.2c3.7,10.1,10.6,2.8,9.2-2.8c-1.4-5.5-14.7-67.5-14.7-67.5L194.1,150.5z"/>
	<path class="st10" d="M103.3,172.5l95.3,0.1l-4.6-22.1c0,0-31.3,21.3-85.7,0.5L103.3,172.5z"/>
</g>
</svg>
