<?xml version="1.0" encoding="utf-8"?>
<!-- Generator: Adobe Illustrator 22.1.0, SVG Export Plug-In . SVG Version: 6.00 Build 0)  -->
<svg version="1.1" id="Layer_1" xmlns="http://www.w3.org/2000/svg" xmlns:xlink="http://www.w3.org/1999/xlink" x="0px" y="0px"
	 viewBox="0 0 121.7 98" style="enable-background:new 0 0 121.7 98;" xml:space="preserve">
<style type="text/css">
	.st0{fill:#4C3227;stroke:#663D31;stroke-miterlimit:10;}
</style>
<path id="Cog" class="st0" d="M90.7,49.9V40L83.4,39l-0.1,0.1c-0.3-1-0.7-2-1.2-2.9l0.1,0l4.3-6.2l-7.2-6.7l-5.6,4.5
	c-0.9-0.4-1.8-0.8-2.7-1.1l-1.1-7.4H60l-1.1,7.3l0.2,0.1c-1,0.3-1.9,0.7-2.8,1.1l0.1-0.3l-6.1-4.2l-6.7,7.2l4.4,5.4
	c-0.5,0.9-0.9,1.9-1.3,3l0,0L39.3,40v9.9l7.3,1.1c0.3,1,0.8,2,1.3,3l-4.5,5.5l6.6,7.3l6.2-4.2l-0.1-0.3c0.9,0.5,1.9,0.9,2.9,1.2
	L59,63.4l1.1,7.3H70l1.1-7.4l0,0c1-0.3,1.9-0.7,2.8-1.2l-0.1,0.4l6.2,4.2l6.6-7.3l-4.5-5.6c0.5-0.9,0.9-1.9,1.2-2.9L90.7,49.9z
	 M65,53.5c-4.7,0-8.5-3.8-8.5-8.5s3.8-8.5,8.5-8.5c4.7,0,8.5,3.8,8.5,8.5S69.7,53.5,65,53.5z"/>
</svg>
