<?xml version="1.0" encoding="utf-8"?>
<!-- Generator: Adobe Illustrator 22.1.0, SVG Export Plug-In . SVG Version: 6.00 Build 0)  -->
<svg version="1.1" id="Layer_1" xmlns="http://www.w3.org/2000/svg" xmlns:xlink="http://www.w3.org/1999/xlink" x="0px" y="0px"
	 viewBox="0 0 170 170" style="enable-background:new 0 0 170 170;" xml:space="preserve">
<style type="text/css">
	.st0{fill:#3A405A;}
	.st1{fill:#F9DEC9;}
	.st2{fill:#AEC5EB;}
	.st3{fill:#3A405A;stroke:#3A405A;stroke-width:2.0558;stroke-miterlimit:10;}
	.st4{fill:#3A405A;stroke:#3A405A;stroke-width:2.0202;stroke-miterlimit:10;}
	.st5{fill:#E9AFA3;stroke:#3A405A;stroke-width:6.7933;stroke-miterlimit:10;}
	.st6{font-family:'SourceSerifPro-Bold';}
	.st7{font-size:74px;}
</style>
<circle class="st0" cx="84.9" cy="85" r="84"/>
<circle class="st1" cx="103.9" cy="92" r="49"/>
<g>
	<path class="st2" d="M71.2,78.1C71,85.7,65.9,107,61.9,103c-1.6-1.6,1.5-17.4,1.6-22.1s2.7-8.1,4.9-8S71.3,72.1,71.2,78.1z"/>
	<path class="st2" d="M135.2,71.9c0.4,7.1-1.3,28.1-10.3,27.1c-2.2-0.2,0.5-17.3,0.5-21.9s2.5-8.1,4.7-8.1
		C132.4,68.9,134.9,67.3,135.2,71.9z"/>
	<path class="st3" d="M58.1,102.4l3.8-0.1c-2-30.6,19.8-42.2,22.2-0.9l3.8-0.1C88.6,56.2,54.6,62.4,58.1,102.4z"/>
	<path class="st4" d="M148.2,98.5l-3-0.1c1.3-41.3-24.9-31.7-20.5-0.3l-3.6,0C117.5,54.5,154.5,57.4,148.2,98.5z"/>
	<path class="st5" d="M105.3,80c-16-0.3-9.3,21.9-0.5,20.8C114.5,101.9,121.2,80.3,105.3,80z"/>
</g>
<path class="st0" d="M25.9,60"/>
<text transform="matrix(1 0 0 1 9.233 104.8057)" class="st1 st6 st7">A</text>
</svg>
