<?xml version="1.0" encoding="utf-8"?>
<!-- Generator: Adobe Illustrator 22.1.0, SVG Export Plug-In . SVG Version: 6.00 Build 0)  -->
<svg version="1.1" id="Layer_1" xmlns="http://www.w3.org/2000/svg" xmlns:xlink="http://www.w3.org/1999/xlink" x="0px" y="0px"
	 viewBox="0 0 300 212.4" style="enable-background:new 0 0 300 212.4;" xml:space="preserve">
<style type="text/css">
	.st0{opacity:0.5;fill:#D8D8D8;}
	.st1{fill:#FFFFFF;stroke:#663D31;stroke-width:4;stroke-miterlimit:10;}
	.st2{fill:#ABD25B;stroke:#000000;stroke-width:0.5;stroke-miterlimit:10;}
	.st3{fill:#DC848A;stroke:#000000;stroke-width:0.5;stroke-miterlimit:10;}
	.st4{fill:none;stroke:#000000;stroke-width:0.5;stroke-miterlimit:10;}
	.st5{fill:#FFFFFF;stroke:#000000;stroke-width:0.5;stroke-miterlimit:10;}
	.st6{fill:#020202;stroke:#000000;stroke-width:0.5;stroke-miterlimit:10;}
	.st7{fill:#431215;stroke:#000000;stroke-miterlimit:10;}
	.st8{fill:#9A2F3F;}
	.st9{fill:#1B0B0D;}
	.st10{fill:#D3D3D3;stroke:#663D31;stroke-width:4;stroke-miterlimit:10;}
	.st11{fill:#FFFFFF;}
	.st12{fill:#878787;stroke:#000000;stroke-width:0.1699;stroke-miterlimit:10;}
	.st13{fill:url(#SVGID_1_);stroke:#000000;stroke-width:0.3397;stroke-miterlimit:10;}
	.st14{fill:none;stroke:#000000;stroke-miterlimit:10;}
	.st15{stroke:#000000;stroke-width:0.6795;stroke-miterlimit:10;}
	.st16{fill:url(#SVGID_2_);}
	.st17{fill:#878787;}
</style>
<g id="Poster">
	<g>
		
			<rect x="38.2" y="39.3" transform="matrix(0.9873 -0.1588 0.1588 0.9873 -19.2942 7.9215)" class="st0" width="3.5" height="170.8"/>
		
			<rect x="51.3" y="199.8" transform="matrix(0.9879 -0.155 0.155 0.9879 -29.7878 19.6169)" class="st0" width="119.2" height="1.9"/>
		
			<rect x="168.7" y="180.3" transform="matrix(0.9848 -0.1736 0.1736 0.9848 -29.7893 32.285)" class="st0" width="1.8" height="12.1"/>
		
			<rect x="167.2" y="189.8" transform="matrix(0.9768 0.2142 -0.2142 0.9768 45.5272 -39.0782)" class="st0" width="71.8" height="1.4"/>
		<rect x="151.3" y="5" transform="matrix(0.9771 0.2127 -0.2127 0.9771 10.5634 -31.7446)" class="st0" width="3" height="56.4"/>
		
			<rect id="Poster__x23_1" x="41.8" y="32" transform="matrix(0.9876 -0.1569 0.1569 0.9876 -16.898 16.858)" class="st1" width="113.1" height="166.8"/>
		<g id="patrick">
			<polygon class="st2" points="61.1,172.7 61.5,174.6 62.5,176.3 65.1,178.6 71.5,182.3 77.1,184.2 83.5,185.8 86.5,186 
				88.9,186.9 98.4,189.9 100.5,190.6 101,189.6 102.7,185.3 105,181.7 108.7,178.4 111.5,177 114,176.5 115.7,177.3 118,179.5 
				119.3,178.1 123.5,176.3 127.2,177.9 132.1,179 135.1,179.4 135.8,176.3 138.1,171.2 142.1,166.6 146.8,163.7 146.5,162.6 
				144.5,161 140.6,159.4 139.5,159 138.9,154.1 137,148.9 134.3,142.9 130.4,142.8 120.4,143.2 108.5,144.7 98.1,147.4 91.4,150 
				83.4,153.7 77,157.4 67.7,164.9 			"/>
			<polygon class="st3" points="123.4,120.6 117.4,101 113.7,89.5 110.9,79.9 105.9,57.1 104,50.5 101.9,45.7 99.2,40.9 96.7,38.3 
				94.4,37.2 91.8,37 88.7,38.5 85.3,42.4 82.2,48.8 79.9,56.3 77.2,70.3 72.9,98.2 68.8,119.8 67.2,123.2 62.4,132.8 56.4,145.7 
				54.9,152.6 55.2,156.6 56.5,161.1 58.8,164 59.9,165.3 60.4,168.9 63.4,165.5 71.6,158.6 81,152.1 86.9,148.8 97.3,144.9 
				105.5,142.4 113.4,141.1 120.8,140.3 129.3,140.1 133.2,140.4 129.7,132.6 125.7,124.9 124,122.6 			"/>
			<path class="st4" d="M107.2,64.2c-5.9-34.9-21-36.3-28.3-3.9c0,0-8.8,55.6-10.2,59.6s-13,23.4-13.7,31.5
				c-0.7,8.1,3.2,13.9,5.3,13.2s7.2-10.5,8.8-13c1.7-2.7,3.7-6.7,7.7-10.9"/>
			<path class="st4" d="M110.9,79.9l13.2,43.1c0,0,1.6-0.7,9,17.4c0,0,6.1,10.9,6.2,18.5c0,0,8,2.5,7.4,4.8c0,0-10,4-11.8,15.7
				c0,0-6.5-0.3-11.9-3.1"/>
			<path class="st4" d="M59.7,164.6c0,0,0.5,2.9,1.1,6.6c0.6,3.6-0.1,6.1,11.6,11.5c0,0,9.3,3.6,14,3.4c0,0,13.3,4.8,14.9,4.9
				c0,0-0.6-0.9-0.3-1.5s3.6-12.6,13.4-12.8c1.5-0.3,0.5-2.1-2.8-5.1"/>
			<path class="st4" d="M127.8,174.5c0,0-10.4,3.4-9.4,5"/>
			<path class="st3" d="M101.4,190.9c0,0,41.2,7.4,13.1-14.3l-1.4,0l-2.2,0.5l-2.3,1.2l-2.4,1.9l-2.7,3.3l-1.4,2.9l-1.2,3l0.1,1.1"
				/>
			<path class="st3" d="M146.8,163.7c28.6,19.5-11.8,15.7-11.8,15.7l0.7-3.1l0.9-2.7l1.4-2.4l1.5-2.1l2.4-2.4l2.7-1.9L146.8,163.7z"
				/>
			<circle class="st5" cx="106.1" cy="73" r="8.5"/>
			<circle class="st5" cx="90.6" cy="74.2" r="8.5"/>
			<circle class="st6" cx="92.2" cy="73.5" r="0.8"/>
			<circle class="st6" cx="106.9" cy="73.1" r="0.8"/>
			<path class="st7" d="M118.9,124c0.7,7.7-41,4.5-41,4.5c-2.8-0.3-2.4-1.1-2.4-1.1C75.3,92.2,113.6,69.7,118.9,124"/>
			<path class="st4" d="M99.2,131.8c0,0,4.9,0.6,7.5-1"/>
			<path class="st4" d="M107.4,139.6c0,0,2.8,2,5-0.5"/>
			<ellipse class="st6" cx="109.9" cy="139.1" rx="1" ry="0.3"/>
			<path class="st2" d="M133.2,140.4l1.1,2.5c-53.1-2.1-73.1,29.7-73.1,29.7l-0.7-3.7C60.4,168.9,85.5,136.9,133.2,140.4
				c0,0-7.6-9.7-8.6-9.7"/>
			<path class="st4" d="M125.6,127.9c0,0,1.4,3.5,1,4.4"/>
			<g>
				<path class="st8" d="M108.5,128.7c0.2-0.1,0.4-0.4,0.4-0.7c0.3-2-1.3-3.8-3-5.1c-1.3-1-2.7-1.9-4.3-2.3
					c-3.3-0.8-6.7,0.5-9.8,1.8l2,1.2c-1.6-0.4-2.9-1.5-4.3-2.2c-2.3-1.1-5.1-1.1-7.5-0.2c-2.4,0.9-4.5,2.5-6.2,4.5l-0.3,1.7
					c0,0,0.2,1,2.4,1.1c1.1,0.1,9,0.7,16.3,0.6c3.4,0,7.7-0.1,10.3-0.3C107.5,128.7,108.5,128.7,108.5,128.7z"/>
			</g>
			<g>
				<path class="st9" d="M90.1,121.7c1.7-0.3,3.3-0.9,4.5-2.1c1.2-1.2,1.7-2.8,1.9-4.5c0.1-1.7-0.1-3.3-0.4-4.9
					c-0.2-1.2-0.4-2.4-1.2-3.4c-0.7-0.9-2.2-1.5-3.2-0.8c-0.7,0.4-1,1.3-1.2,2.1c-0.2,1.1-0.2,2.1,0.1,3.2c0.2,0.7,0.4,1.4,0.2,2
					c-0.3,1.1-1.6,1.5-2.8,1.4c-0.5,0-1.1-0.2-1.5-0.6c-0.4-0.5-0.3-1.1-0.3-1.7c0.1-0.9,0.1-1.7,0.2-2.6c0.1-1.4-0.1-3.2-1.4-3.6
					c-0.5-0.2-1.1,0-1.7,0.2c-1.7,0.6-3.2,1.7-4.3,3.1l-2.4,7.6c0.8,2.1,2.1,3.4,3.9,4.7l2.9-1l3.5-0.1L90.1,121.7z"/>
			</g>
		</g>
	</g>
	<g>
		
			<rect id="Poster__x23_2" x="142.7" y="18.5" transform="matrix(0.9772 0.2122 -0.2122 0.9772 26.1593 -39.9477)" class="st10" width="113.1" height="166.8"/>
		<g id="Anime">
			<polygon class="st11" points="191.7,43.1 195.8,57.6 199.1,63.7 206.3,73.4 218.4,86.5 211.3,100.7 202.1,124.7 197.2,142 
				198.1,152.3 201.8,157.9 210.6,161.7 211.4,167.1 217.1,176.1 221,179.2 226.1,186.2 228.5,191.6 150.5,174.6 153.3,162.6 
				158,147.4 162.4,141.5 167.5,138 173.6,137.6 182.1,138.5 186.8,139.5 187.9,131.6 186.7,124 176.4,125.2 170.5,124.9 166,116.5 
				161,103.8 160.8,92.8 164.5,85.5 166.6,76.7 169.8,64.6 173,56.9 178.6,49 181.8,44.4 186.4,41.4 191.8,38.9 			"/>
			<polygon class="st12" points="218.4,86.5 206.9,112.2 201,129 197.3,143.7 197.7,150.7 200.1,155.6 201.8,157.9 207.5,160.5 
				210.6,161.7 211.4,167.1 214.3,173.1 219.2,178 224.7,184.2 227.3,187.5 228.5,191.6 235.3,193.3 239.3,174.1 237.1,153.5 
				239.2,129.3 244.4,111.2 251.4,94.9 254.9,83.6 254.9,68.7 252.2,57.8 249.2,49.6 240.9,40.5 229.2,33.2 218.7,29.7 205.9,28.4 
				197.7,28.1 191.2,29.7 183.6,33.6 175.4,41 167.3,53.5 163.4,63.9 157.9,81.2 150.5,100.5 146.1,109.5 142.9,118 137.9,134.7 
				135.4,145.9 133.6,161.4 130.8,170.4 138.5,172.1 149.2,174.5 151.7,166.2 157.2,150.2 163.2,140.5 171.9,136.6 182.6,138.3 
				186.8,139.5 188.3,131.8 186.9,124.5 181.1,125.1 170.5,123.8 165.3,116 162.2,107.3 160,100.3 162.8,88.8 167.2,77.6 
				167.6,74.4 171.9,60.5 176.8,50.2 184.3,42.3 191.9,39.9 192.3,48.2 197.5,61.8 200.6,65.3 206.3,73.4 215.9,83.3 			"/>
			<g>
				<g>
					<path d="M131.9,171.1c4-12.3,3.6-25.5,7.2-37.9c2-7,3.7-14.1,6.3-20.9c2.7-7,7-13.3,9.7-20.4c5.2-13.7,7.7-28.4,14.7-41.3
						c7.2-13.3,20.9-24.7,37-21.3c0.9,0.2,1.3-1.2,0.4-1.4c-12.7-2.7-25.2,3.6-33.1,13.5c-9.3,11.6-12.8,26.3-17.1,40.1
						c-2.6,8.3-5.8,15.9-9.9,23.6c-3.8,7.1-5.8,14.9-8,22.7c-2,6.9-4,13.7-4.9,20.9c-0.9,7.4-1.5,15-3.8,22.1
						C130.1,171.6,131.6,172,131.9,171.1L131.9,171.1z"/>
				</g>
			</g>
			<g>
				<g>
					<path d="M207.3,29.4c15.3,0.3,30.9,6.1,39.8,19.2c8.5,12.6,9.3,31,4.1,45c-2.6,7.1-6.3,13.8-8.8,21c-2.3,6.6-3.9,13.5-4.8,20.4
						c-1.9,13.5-1.2,27.2,1.8,40.5c0.2,0.9,1.7,0.5,1.4-0.4c-3.7-16.5-3.7-33.6,0.2-50c3.7-15.5,13.6-29.2,14.7-45.3
						c0.9-13.4-2.2-27.4-11.7-37.3c-9.6-10-23.1-14.3-36.7-14.6C206.4,27.9,206.4,29.4,207.3,29.4L207.3,29.4z"/>
				</g>
			</g>
			<g>
				<g>
					<path d="M191,37.8c-1,22.6,16.4,37.9,30.8,52.8c0.7,0.7,1.7-0.4,1.1-1.1C208.8,75,191.5,60,192.5,37.8
						C192.6,36.9,191.1,36.9,191,37.8L191,37.8z"/>
				</g>
			</g>
			<g>
				<g>
					<path d="M217.7,86.1c-7.9,15.2-14.5,31.2-19.3,47.8c-1.8,6.3-3.5,13.4-0.6,19.7c2.7,5.9,7.4,6.6,13,8.9
						c0.9,0.4,1.3-1.1,0.4-1.4c-3-1.2-6.3-1.6-8.9-3.8c-3.2-2.7-4.6-6.9-4.6-11c-0.1-7,2.7-14.1,4.8-20.6
						c4.4-13.3,9.9-26.2,16.4-38.6C219.5,86,218.2,85.3,217.7,86.1L217.7,86.1z"/>
				</g>
			</g>
			<g>
				<g>
					<path d="M216.8,119.7c-3.4,4.3-5.7,9.3-6.2,14.8c-0.4,4.1,0.4,8.2,0.6,12.3c0.2,3.9-0.4,7.6-0.9,11.5
						c-0.8,6.4,0.3,11.6,4.3,16.7c4.5,5.7,12.9,10,13.1,18.1c0,1,1.5,1,1.5,0c-0.4-12.4-16.5-16.4-17.7-28.9
						c-0.3-3.5,0.4-6.9,0.8-10.4c0.4-3.6,0.3-7.1-0.1-10.7c-0.8-8.4,0.1-15.7,5.5-22.5C218.5,120,217.4,118.9,216.8,119.7
						L216.8,119.7z"/>
				</g>
			</g>
			<g>
				<g>
					<path d="M185.8,125.5c2.5,4.5,1.1,9.4-0.4,14.1c-0.4,1.3,1.6,1.8,2,0.5c1.6-5.2,3-10.6,0.2-15.6
						C186.9,123.4,185.2,124.4,185.8,125.5L185.8,125.5z"/>
				</g>
			</g>
			<g>
				<g>
					<path d="M193.3,141.3c-8.4-4.1-24.5-9.7-31.5-0.6c-7.2,9.4-11.1,22.3-12.7,33.9c-0.2,1.3,1.8,1.8,2,0.5
						c1.3-9.5,4.2-19,8.7-27.4c0.9-1.7,1.9-3.3,3-4.9c2.6-3.7,5.8-4.7,10.1-4.6c6.8,0.1,13.3,1.9,19.4,4.8
						C193.5,143.7,194.5,141.9,193.3,141.3L193.3,141.3z"/>
				</g>
			</g>
			<g>
				<g>
					<path d="M189.6,171.8c-2.8,3.1-5.7,6.2-8.5,9.3c-0.9,1,0.6,2.4,1.4,1.4c2.8-3.1,5.7-6.2,8.5-9.3
						C191.9,172.3,190.4,170.8,189.6,171.8L189.6,171.8z"/>
				</g>
			</g>
			<g>
				<g>
					<path d="M203.4,119.1c-9.8,0.4-19,6.6-29.1,5c-5.9-0.9-7.3-7.9-9.5-12.8c-3-6.7-4.1-11.5-2.7-18.7c0.2-1.3-1.7-1.8-2-0.5
						c-1.1,5.7-1.3,10.5,1,15.9c1.2,3,2.6,5.9,3.9,8.8c1.1,2.4,1.9,5.8,3.7,7.6c3.1,3.2,9.9,1.7,13.7,1.3c7.1-0.8,13.9-4.2,20.9-4.5
						C204.7,121.1,204.7,119.1,203.4,119.1L203.4,119.1z"/>
				</g>
			</g>
			<g>
				<g>
					<path d="M191.5,38.9c-9.5,0.8-16.9,11.5-20.2,19.6c-4.4,10.8-4.8,22.9-10.9,33.1c-0.7,1.1,1.1,2.2,1.8,1c4.7-8,6.1-17,8.5-25.8
						c2.5-9.4,9.3-24.9,20.8-25.9C192.8,40.9,192.8,38.8,191.5,38.9L191.5,38.9z"/>
				</g>
			</g>
			<g>
				<g>
					<path d="M204.8,33.9c-1.1-0.1-2.3,1.2-2.9,2c-0.9,1.1-1.5,2.3-1.9,3.6c-0.1,0.3,0.4,0.4,0.5,0.1c0.3-1,0.8-2,1.4-2.9
						c0.6-0.8,1.8-2.5,2.9-2.3C205.1,34.5,205.1,34,204.8,33.9L204.8,33.9z"/>
				</g>
			</g>
			<g>
				<g>
					<path d="M200.6,34.1c-2.4-0.2-4.7,0.1-7,0.8c-0.3,0.1-0.2,0.6,0.1,0.5c2.3-0.7,4.5-0.9,6.9-0.8
						C200.9,34.6,200.9,34.1,200.6,34.1L200.6,34.1z"/>
				</g>
			</g>
			<g>
				<g>
					<path d="M207.4,35c2.8-1.5,6.3-0.7,9.1,0.3c3.1,1,5.4,3.1,7.8,5.3c0.2,0.2,0.6-0.1,0.4-0.4c-2.7-2.5-5.3-4.7-8.9-5.7
						c-2.8-0.8-5.9-1.4-8.6,0C206.9,34.7,207.1,35.1,207.4,35L207.4,35z"/>
				</g>
			</g>
			<g>
				<g>
					<path d="M207.3,34.9c5.5-4.8,12.7-1.8,18.4,0.9c0.3,0.1,0.6-0.3,0.3-0.4c-5.9-2.8-13.4-5.8-19-0.8
						C206.7,34.8,207.1,35.1,207.3,34.9L207.3,34.9z"/>
				</g>
			</g>
			<g>
				<g>
					<path d="M246.5,83c0,5.3,0.4,10.8-0.3,16.1c-0.8,5.7-2.2,11.4-3.4,17c-0.1,0.3,0.4,0.5,0.5,0.1c1.2-5.7,2.6-11.3,3.4-17.1
						c0.7-5.3,0.3-10.8,0.3-16.1C247,82.7,246.5,82.7,246.5,83L246.5,83z"/>
				</g>
			</g>
			<g>
				<g>
					<path d="M249.4,71.4c1.9,7.7,3.5,14.7,1.7,22.6c-0.1,0.3,0.4,0.5,0.5,0.1c1.8-8,0.2-15.1-1.7-22.9
						C249.8,70.9,249.3,71,249.4,71.4L249.4,71.4z"/>
				</g>
			</g>
			<g>
				<g>
					<path d="M223.9,106.2c-1.7,9.1-5.2,17.6-7.4,26.5c-2.1,8.7-2.4,17.6-1,26.5c0.1,0.3,0.5,0.2,0.5-0.1c-1.5-9.4-1-18.8,1.5-28
						c2.2-8.3,5.4-16.3,6.9-24.7C224.5,106.1,224,105.9,223.9,106.2L223.9,106.2z"/>
				</g>
			</g>
			<g>
				<path class="st11" d="M210.7,156.4c-0.9-2.8-1.8-5.7-1.7-8.7c0-3.5,1.2-6.9,1.8-10.3l0.8,4.2L210.7,156.4z"/>
				<g>
					<path d="M211,156.3c-0.9-3.1-1.9-6.2-1.7-9.5c0.2-3.2,1.2-6.2,1.8-9.4c-0.2,0-0.4,0-0.7,0c0.3,1.4,0.8,2.8,0.8,4.2
						c0.1,1.4-0.2,3-0.3,4.4c-0.2,3.4-0.4,6.9-0.6,10.3C210.3,156.8,211,156.8,211,156.3c0.2-3.5,0.4-7.1,0.7-10.7
						c0.1-1.3,0.3-2.7,0.2-4c-0.1-1.4-0.6-2.9-0.9-4.3c-0.1-0.3-0.6-0.3-0.7,0c-0.6,3.2-1.6,6.3-1.8,9.5c-0.2,3.3,0.8,6.5,1.7,9.7
						C210.5,156.9,211.2,156.7,211,156.3z"/>
				</g>
			</g>
			<g>
				<g>
					<path d="M205.3,159.3c-4-4.5-6.5-12.1-4.2-17.9c0.1-0.3-0.4-0.4-0.5-0.1c-2.5,6,0.1,13.7,4.3,18.4
						C205.2,159.9,205.5,159.6,205.3,159.3L205.3,159.3z"/>
				</g>
			</g>
			<g>
				<g>
					<path d="M203.9,133.8c-2.5,7.6-1.8,15.8,2,22.9c0.2,0.3,0.6,0,0.4-0.3c-3.7-7-4.4-15-1.9-22.5
						C204.5,133.7,204,133.5,203.9,133.8L203.9,133.8z"/>
				</g>
			</g>
			<g>
				<g>
					<path d="M212.2,123.8c-2.3,7.8-5.9,16.3-4,24.6c0.1,0.3,0.6,0.2,0.5-0.1c-1.8-8.1,1.8-16.6,4-24.3
						C212.8,123.7,212.3,123.5,212.2,123.8L212.2,123.8z"/>
				</g>
			</g>
			<g>
				<g>
					<path d="M153,106.8c-3.7,11.6-7.4,23.2-8.9,35.3c-1.4,10.9-0.7,22.3,1.5,33.1c0.1,0.3,0.6,0.2,0.5-0.1
						c-2.2-10.9-2.9-22.3-1.4-33.4c1.6-11.9,5.2-23.3,8.9-34.7C153.6,106.6,153.1,106.5,153,106.8L153,106.8z"/>
				</g>
			</g>
			<g>
				<g>
					<path d="M165.4,116.4c-1,9.4-3.7,18.4-8,26.8c-0.2,0.3,0.3,0.5,0.4,0.3c4.4-8.4,7.1-17.6,8.1-27
						C165.9,116.1,165.4,116.1,165.4,116.4L165.4,116.4z"/>
				</g>
			</g>
			<g>
				<g>
					<path d="M164.1,113.7c-0.6,4.5-1.7,8.8-3.2,13c-0.1,0.3,0.4,0.4,0.5,0.1c1.5-4.2,2.6-8.6,3.2-13
						C164.6,113.6,164.1,113.4,164.1,113.7L164.1,113.7z"/>
				</g>
			</g>
			<g>
				<g>
					<path d="M159.2,124.7c-1.4,10-6.3,19.5-4.6,29.8c0.1,0.3,0.5,0.2,0.5-0.1c-1.7-10.2,3.2-19.7,4.6-29.6
						C159.7,124.5,159.2,124.4,159.2,124.7L159.2,124.7z"/>
				</g>
			</g>
			<g>
				<g>
					<path d="M146,145.4c-2,9.9,0.1,19.3,2.7,28.8c0.1,0.3,0.6,0.2,0.5-0.1c-2.6-9.4-4.7-18.8-2.7-28.5
						C146.6,145.2,146.1,145.1,146,145.4L146,145.4z"/>
				</g>
			</g>
			<g>
				<g>
					<path d="M230.8,126.5c-3,12.6,0,25.2,1.5,37.7c0.1,0.9,1.6,1,1.5,0c-1.5-12.4-4.5-24.9-1.6-37.3
						C232.4,126,231,125.6,230.8,126.5L230.8,126.5z"/>
				</g>
			</g>
			<g>
				<g>
					<path d="M227.9,139.5c-0.9,3.6-1.3,7.1-0.8,10.8c0.7,5.4,2.2,9.5,1.2,15.1c-0.2,0.9,1.3,1.3,1.4,0.4c1.6-8.9-2.6-16.9-0.4-25.8
						C229.6,139,228.1,138.6,227.9,139.5L227.9,139.5z"/>
				</g>
			</g>
			<g>
				<g>
					<path d="M223.2,171.7c1,3.1,3.6,5.8,5.5,8.5c2.4,3.4,4.8,6.7,7.3,10.1c0.2,0.3,0.6,0,0.4-0.3c-2.1-3-4.3-6-6.4-8.9
						c-2.1-2.9-5.2-6-6.3-9.5C223.6,171.2,223.1,171.4,223.2,171.7L223.2,171.7z"/>
				</g>
			</g>
			<g>
				<g>
					<path d="M222.3,173.4c3.4,5.1,8,10.4,9.7,16.4c0.1,0.3,0.6,0.2,0.5-0.1c-1.7-6.1-6.3-11.3-9.7-16.5
						C222.6,172.8,222.2,173.1,222.3,173.4L222.3,173.4z"/>
				</g>
			</g>
			<g>
				<g>
					<path d="M223.4,181.3c-4.1-8-7.3-16.3-9.6-25c-0.1-0.3-0.6-0.2-0.5,0.1c2.3,8.7,5.5,17.1,9.6,25.1
						C223.1,181.9,223.5,181.6,223.4,181.3L223.4,181.3z"/>
				</g>
			</g>
			<g>
				<g>
					<path d="M214.5,160.4c-1.8,7,2.8,13.9,5.6,20c0.1,0.3,0.6,0,0.4-0.3c-2.7-6-7.3-12.8-5.6-19.6C215,160.2,214.6,160,214.5,160.4
						L214.5,160.4z"/>
				</g>
			</g>
			<g>
				<g>
					<path d="M194.7,97.4c0.9,0.6,1.6,1.4,2.1,2.3c0.2,0.3,0.6,0,0.4-0.3c-0.6-1-1.3-1.9-2.3-2.5C194.7,96.8,194.4,97.2,194.7,97.4
						L194.7,97.4z"/>
				</g>
			</g>
			<g>
				<g>
					<path d="M197.8,97.9c0.9,0.6,1.6,1.4,2.1,2.4c0.1,0.3,0.6,0,0.4-0.3c-0.5-1.1-1.3-1.9-2.3-2.6
						C197.7,97.3,197.5,97.7,197.8,97.9L197.8,97.9z"/>
				</g>
			</g>
			<g>
				<g>
					<path d="M200.8,98.5c1.2,0.9,2.1,2.1,2.5,3.5c0.1,0.3,0.6,0.2,0.5-0.1c-0.5-1.6-1.5-2.9-2.8-3.8
						C200.8,97.9,200.6,98.3,200.8,98.5L200.8,98.5z"/>
				</g>
			</g>
			<g>
				<g>
					<path d="M203.2,99.6c1,1,2.1,2.1,3.1,3.1c0.2,0.2,0.6-0.1,0.4-0.4c-1-1-2.1-2.1-3.1-3.1C203.3,99,202.9,99.4,203.2,99.6
						L203.2,99.6z"/>
				</g>
			</g>
			<g>
				<g>
					<path d="M166.9,85.7c1.3,1,2.4,2.3,3.3,3.7c0.2,0.3,0.6,0,0.4-0.3c-0.9-1.4-2-2.7-3.4-3.8C167,85.2,166.7,85.5,166.9,85.7
						L166.9,85.7z"/>
				</g>
			</g>
			<g>
				<g>
					<path d="M164.8,86.1c1.2,0.3,2.1,1.1,2.7,2.1c0.2,0.3,0.6,0,0.4-0.3c-0.7-1.2-1.7-2-3-2.4C164.6,85.5,164.5,86,164.8,86.1
						L164.8,86.1z"/>
				</g>
			</g>
			<g>
				<g>
					<path d="M164.3,86.9c0.5,0.1,1,0.4,1.2,0.9c0.1,0.3,0.6,0,0.4-0.3c-0.3-0.6-0.8-1-1.5-1.1C164.1,86.4,163.9,86.9,164.3,86.9
						L164.3,86.9z"/>
				</g>
			</g>
			<g>
				<g>
					<path d="M180,70c1.6,6.3-0.9,15.8-8,17.6c-0.1,0-0.2,0.2-0.2,0.3c0.2,1.6,0.6,3,1.1,4.5c0.1,0.3,0.6,0.2,0.5-0.1
						c-1.4-3.8-0.4-3.8,2.2-5.8c1.4-1.1,2.5-2.7,3.4-4.3c2.1-3.8,2.6-8.1,1.5-12.3C180.4,69.5,179.9,69.6,180,70L180,70z"/>
				</g>
			</g>
			<g>
				<g>
					<path d="M178.5,70.6c0.9,0.9,1.5,2.1,1.7,3.4c0,0.3,0.6,0.3,0.5,0c-0.2-1.4-0.8-2.7-1.8-3.7C178.6,70,178.3,70.4,178.5,70.6
						L178.5,70.6z"/>
				</g>
			</g>
			<g>
				<g>
					<path d="M197.8,74.9c1.8-0.5,3.6-0.7,5.5-0.6c0.3,0,0.3-0.5,0-0.5c-1.9-0.1-3.8,0.2-5.7,0.6C197.4,74.5,197.5,75,197.8,74.9
						L197.8,74.9z"/>
				</g>
			</g>
			<g>
				<g>
					<path d="M211.1,71.6c2.6,6.2,5.1,12.2,9.6,17.3c0.2,0.2,0.6-0.1,0.4-0.4c-4.4-5-6.9-10.9-9.5-17.1
						C211.5,71.1,211,71.3,211.1,71.6L211.1,71.6z"/>
				</g>
			</g>
			<g>
				<g>
					<path d="M213.9,74.4c1.9,5.3,4.1,9.8,7.4,14.4c0.2,0.3,0.6,0,0.4-0.3c-3.2-4.6-5.4-9-7.3-14.3C214.3,74,213.8,74.1,213.9,74.4
						L213.9,74.4z"/>
				</g>
			</g>
			<g>
				<g>
					<path d="M175.2,110c0.2,0.6,0.7,1.1,1.4,1.2c0.3,0.1,0.5-0.4,0.1-0.5c-0.5-0.1-0.8-0.4-1-0.8
						C175.5,109.5,175.1,109.6,175.2,110L175.2,110z"/>
				</g>
			</g>
			<g>
				<g>
					<path d="M176.2,107.9c-0.5-0.8-0.8-1.8-0.9-2.7c0-0.3-0.5-0.3-0.5,0c0.1,1.1,0.5,2.1,1,3C176,108.4,176.4,108.1,176.2,107.9
						L176.2,107.9z"/>
				</g>
			</g>
			<g>
				<g>
					<path d="M174.1,104.8c0.9,0.2,1.7,0.5,2.4,1c0.3,0.2,0.7,0.5,1,0.8c0.2,0.2,0.4,0.4,0.5,0.7c0,0.1,0.6,0.9-0.1,0.7
						c-0.3-0.1-0.5,0.4-0.1,0.5c0.4,0.1,0.9,0.2,1.1-0.3c0.2-0.5-0.4-1.1-0.7-1.5c-1-1.2-2.4-2.1-3.9-2.4
						C173.9,104.2,173.7,104.7,174.1,104.8L174.1,104.8z"/>
				</g>
			</g>
			<g>
				<g>
					<path d="M175.1,71.9c-4.7,2.3-5.1,7.6-4.6,12.2c0,0.3,0.5,0.3,0.5,0c-0.5-4.4-0.2-9.6,4.3-11.8
						C175.6,72.2,175.3,71.7,175.1,71.9L175.1,71.9z"/>
				</g>
			</g>
			<linearGradient id="SVGID_1_" gradientUnits="userSpaceOnUse" x1="174.249" y1="82.6593" x2="176.7295" y2="73.4569">
				<stop  offset="0" style="stop-color:#FFFFFF"/>
				<stop  offset="1" style="stop-color:#000000"/>
			</linearGradient>
			<polygon class="st13" points="175.2,72.1 178,74.4 179.5,77.4 179.9,79.3 179,81.6 178,83.2 175.9,85.7 174.4,86.2 171.8,85.3 
				170.4,83.9 170.9,77.2 172.7,73.8 			"/>
			<path class="st14" d="M169.4,81.3c0.2,0.9,0.6,1.8,1,2.7c0.2,0.4,0.4,0.7,0.7,1c0.2,0.2,0.5,0.3,0.7,0.4c0.9,0.4,1.7,0.6,2.7,0.8
				c0.2,0,0.4,0.1,0.6-0.1"/>
			<path class="st15" d="M179.9,79.3c-1.7-5.8-8.3-8.8-8.3-8.8l-1.9,2.1l-0.2,4.7l-1.6-4.6l-2.1,0.8l2.1-2.4l-2.9,1.6l2.4-2.7
				l-2.2-0.2L168,68l-3.5-0.8l4.4-0.4l-1.6-1.8l2.4,0.8c0,0,7.5,2.9,10.8,10.8L179.9,79.3z"/>
			<g>
				<g>
					<path d="M208.7,164.1c-0.9,6.1,0.7,12.3-1.6,18.2c-0.1,0.3,0.4,0.4,0.5,0.1c2.3-5.9,0.7-12.1,1.6-18.2
						C209.3,164,208.8,163.8,208.7,164.1L208.7,164.1z"/>
				</g>
			</g>
			<path class="st15" d="M197.2,80.5l5.7-2l2.5,0.9c0,0,8.3,6.1,9.4,8.3c1.1,2.3,0.7,4,0.7,4l1.2,4.3l-0.3-4.4l0.6-1.1l2.1,1.9
				l-1.8-3.6l-0.7-2.2c0,0-7.2-7.7-10.1-8.8l-3-1.3l-0.5-0.6l-1.3-1.7l0.6,2.4l-3.1-1.7l2.2,2.2l-2.1,0.5l-4.2-0.9l3.2,2L197.2,80.5
				z"/>
			<g>
				<linearGradient id="SVGID_2_" gradientUnits="userSpaceOnUse" x1="205.5087" y1="95.5973" x2="209.5254" y2="80.6956">
					<stop  offset="0" style="stop-color:#FFFFFF"/>
					<stop  offset="1" style="stop-color:#000000"/>
				</linearGradient>
				<path class="st16" d="M215.1,87.6c-1.5,2.8-3.7,5.1-6.3,6.8c-0.7,0.4-1.4,0.8-2.1,1c-1.3,0.2-2.5-0.2-3.7-0.6
					c-0.8-0.3-1.6-0.6-2.1-1.2c-0.7-0.8-0.9-2-0.8-3.1c0.1-4.2,2.2-8.4,5.5-11l2.9,0.8l4.2,3.7L215.1,87.6z"/>
				<g>
					<path d="M214.6,87.3c-1.4,2.5-3.5,5.2-6.1,6.7c-2.9,1.6-8.1,0.8-8.1-3.4c0-2.8,1.1-5.7,2.7-7.9c-0.1,0.1,1.8-2.5,2.2-2.6
						c0.4-0.1,1.2,0.4,1.6,0.5c3.2,0.9,5.7,4.6,7.7,7.3c0.4,0.5,1.3,0,0.9-0.5c-1.9-2.6-3.6-4.5-6.1-6.6c-1-0.8-1.7-1.1-3-1.4
						c-1.9-0.4-2.6,0.8-3.9,2.4c-2.4,3.2-5.6,10.9-0.6,13.3c6,2.8,10.8-2.2,13.6-7.1C215.8,87.3,214.9,86.8,214.6,87.3z"/>
				</g>
			</g>
			<g>
				<g>
					<path d="M197.4,92.4c3.1,3.5,9.2,4.8,13.7,3.8c0.5-0.1,0.3-0.8-0.2-0.7c-4.1,1-10.1-0.4-12.9-3.6C197.6,91.5,197,92,197.4,92.4
						L197.4,92.4z"/>
				</g>
			</g>
			<g>
				<path class="st17" d="M214.2,73.1c-0.2-0.2-0.4-0.3-0.5-0.5c-1.9-2.7-4.7-4.6-7.8-5.7c-3.2-1.1-6.6-1.3-10-0.9
					c-0.9,0.1-2.1,0.4-2.3,1.4l0.2,0.1c-0.1,0-0.2,0-0.2,0L214.2,73.1z"/>
				<g>
					<path d="M214.4,72.9c-1.6-1.4-2.7-3.1-4.5-4.3c-2-1.3-4.3-2.2-6.7-2.7c-2.7-0.5-8-1.5-9.7,1.3c-0.1,0.1,0,0.3,0.2,0.4
						c0-0.1,0-0.3,0-0.4c-0.3,0-0.4,0.4-0.1,0.5c6.9,1.9,13.7,3.8,20.6,5.6c0.3,0.1,0.5-0.4,0.1-0.5c-3.4-0.9-6.9-1.9-10.3-2.8
						c-2.3-0.6-4.6-1.3-6.9-1.9c-0.8-0.2-1.6-0.5-2.4-0.7c-0.8-0.1-0.8,0.2-0.8,0.2c0.3,0,0.4-0.4,0.1-0.5c1.6-0.8,3.2-1.2,4.9-1.1
						c0.5,0,1,0,1.4,0c2.3,0.1,4.5,0.6,6.7,1.5c3.2,1.4,4.6,3.5,7.1,5.6C214.3,73.5,214.7,73.1,214.4,72.9z"/>
				</g>
			</g>
			<g>
				<path class="st17" d="M179.9,65c-0.2-0.5-0.5-0.9-0.8-1.3c-1.7-2.2-3.6-4.6-6.2-5.4l2,2.4c-0.6-0.5-1.3-1-1.9-1.4l6.8,7.6
					c-0.2-0.3-0.3-0.6-0.5-0.9l0.6,0.7C180.1,66,180.1,65.4,179.9,65z"/>
				<g>
					<path d="M180.2,64.8c-1.3-2.9-4.2-5.8-7.2-6.9c-0.3-0.1-0.4,0.2-0.2,0.4c0.7,0.8,1.3,1.6,2,2.4c0.1-0.1,0.2-0.2,0.4-0.4
						c-0.6-0.5-1.3-1-2-1.4c-0.3-0.2-0.5,0.2-0.3,0.4c2.3,2.5,4.6,5,6.8,7.6c0.2,0.2,0.5-0.1,0.4-0.3c-0.2-0.3-0.3-0.6-0.5-0.9
						c-0.1,0.1-0.3,0.2-0.4,0.3c0.2,0.2,0.4,0.4,0.6,0.7c0.1,0.2,0.4,0,0.4-0.1C180.3,65.9,180.3,65.5,180.2,64.8
						c0-0.3-0.5-0.1-0.5,0.2c0,0.5-0.1,0.9-0.1,1.4c0.1,0,0.3-0.1,0.4-0.1c-0.2-0.2-0.4-0.4-0.6-0.7c-0.2-0.2-0.5,0.1-0.4,0.3
						c0.2,0.3,0.3,0.6,0.5,0.9c0.1-0.1,0.3-0.2,0.4-0.3c-2.3-2.5-4.6-5-6.8-7.6c-0.1,0.1-0.2,0.3-0.3,0.4c0.7,0.4,1.3,0.9,1.9,1.4
						c0.3,0.2,0.6-0.1,0.4-0.4c-0.7-0.8-1.3-1.6-2-2.4c-0.1,0.1-0.2,0.3-0.2,0.4c2.9,1,5.6,3.9,6.9,6.6
						C179.9,65.4,180.3,65.1,180.2,64.8z"/>
				</g>
			</g>
		</g>
	</g>
</g>
</svg>
